<?xml version="1.0" encoding="UTF-8" standalone="no"?>
<!-- Created with Inkscape (http://www.inkscape.org/) -->

<svg
   xmlns:dc="http://purl.org/dc/elements/1.1/"
   xmlns:cc="http://creativecommons.org/ns#"
   xmlns:rdf="http://www.w3.org/1999/02/22-rdf-syntax-ns#"
   xmlns:svg="http://www.w3.org/2000/svg"
   xmlns="http://www.w3.org/2000/svg"
   xmlns:sodipodi="http://sodipodi.sourceforge.net/DTD/sodipodi-0.dtd"
   xmlns:inkscape="http://www.inkscape.org/namespaces/inkscape"
   width="1280"
   height="720"
   viewBox="0 0 1280 719.99999"
   id="svg2"
   version="1.1"
   inkscape:version="0.91 r13725"
   sodipodi:docname="as_of_now_mockup.svg">
  <defs
     id="defs4" />
  <sodipodi:namedview
     id="base"
     pagecolor="#ffffff"
     bordercolor="#666666"
     borderopacity="1.0"
     inkscape:pageopacity="0.0"
     inkscape:pageshadow="2"
     inkscape:zoom="0.665625"
     inkscape:cx="723.3517"
     inkscape:cy="344.15517"
     inkscape:document-units="px"
     inkscape:current-layer="layer1"
     showgrid="true"
     inkscape:showpageshadow="false"
     units="px"
     showguides="true"
     inkscape:guide-bbox="true"
     inkscape:window-width="1280"
     inkscape:window-height="714"
     inkscape:window-x="0"
     inkscape:window-y="1"
     inkscape:window-maximized="1"
     inkscape:snap-page="true">
    <inkscape:grid
       type="xygrid"
       id="grid4136" />
    <sodipodi:guide
       position="-880,3719.9999"
       orientation="1,0"
       id="guide4138" />
    <sodipodi:guide
       position="640,399.99999"
       orientation="1,0"
       id="guide4140" />
  </sodipodi:namedview>
  <metadata
     id="metadata7">
    <rdf:RDF>
      <cc:Work
         rdf:about="">
        <dc:format>image/svg+xml</dc:format>
        <dc:type
           rdf:resource="http://purl.org/dc/dcmitype/StillImage" />
        <dc:title />
      </cc:Work>
    </rdf:RDF>
  </metadata>
  <g
     inkscape:label="Layer 1"
     inkscape:groupmode="layer"
     id="layer1"
     transform="translate(0,-332.3623)">
    <rect
       style="fill:none"
       id="rect4152"
       width="160"
       height="160"
       x="0"
       y="472.3623"
       rx="196.91901" />
    <rect
       style="fill:none"
       id="rect4154"
       width="180"
       height="120"
       x="0"
       y="332.3623"
       rx="196.91901" />
    <rect
       style="fill:none"
       id="rect4156"
       width="20"
       height="40"
       x="80"
       y="452.3623"
       rx="196.91901" />
    <rect
       style="fill:none"
       id="rect4158"
       width="180"
       height="119.99999"
       x="0"
       y="332.3623"
       rx="83.004692" />
    <rect
       style="fill:none"
       id="rect4160"
       width="180"
       height="600"
       x="0"
       y="452.3623"
       rx="83.0047" />
    <rect
       style="fill:none"
       id="rect4162"
       width="240"
       height="20"
       x="180"
       y="432.3623"
       rx="83.0047" />
    <rect
       style="fill:none"
       id="rect4164"
       width="180"
       height="120"
       x="0"
       y="332.3623"
       rx="83.0047" />
    <rect
       style="fill:none"
       id="rect4169"
       width="180"
       height="119.99999"
       x="0"
       y="332.3623"
       rx="40" />
    <rect
       style="fill:none"
       id="rect4190"
       width="180"
       height="220"
       x="0"
       y="332.3623"
       rx="20.751173" />
    <rect
       style="fill:none"
       id="rect4195"
       width="180"
       height="120.00001"
       x="0"
       y="332.3623"
       rx="20.7512" />
    <rect
       style="fill:none"
       id="rect4200"
       width="120"
       height="140"
       x="40"
       y="412.3623"
       rx="20.7512" />
    <rect
       style="fill:none"
       id="rect4202"
       width="60"
       height="240"
       x="80"
       y="552.3623"
       rx="20.7512" />
    <rect
       style="fill:none;fill-opacity:1"
       id="rect4206"
       width="180"
       height="120"
       x="0"
       y="332.3623"
       rx="15.2582" />
    <rect
       style="fill:none;fill-opacity:1"
       id="rect4208"
       width="180"
       height="140"
       x="0"
       y="332.3623"
       rx="15.2582"
       ry="0" />
    <rect
       style="fill:none;fill-opacity:1"
       id="rect4232"
       width="40"
       height="60"
       x="20"
       y="532.3623"
       rx="15.2582" />
    <rect
       style="fill:none;fill-opacity:1"
       id="rect4234"
       width="40"
       height="100"
       x="40"
       y="612.3623"
       rx="15.2582"
       ry="0" />
    <rect
       style="fill:none;fill-opacity:1"
       id="rect4236"
       width="120"
       height="120"
       x="20"
       y="412.3623"
       rx="15.2582" />
    <rect
       style="fill:none;fill-opacity:1"
       id="rect4238"
       width="0"
       height="20.000004"
       x="80"
       y="592.3623"
       rx="0" />
    <rect
       style="fill:none;fill-opacity:1"
       id="rect4240"
       width="180"
       height="160"
       x="-20"
       y="572.3623"
       ry="0" />
    <rect
       style="fill:none;fill-opacity:1"
       id="rect4242"
       width="20"
       height="140"
       x="80"
       y="492.3623" />
    <rect
       style="fill:none;fill-opacity:1"
       id="rect4247"
       width="200"
       height="160"
       x="-20"
       y="712.3623" />
    <rect
       style="fill:none;fill-opacity:1"
       id="rect4249"
       width="60"
       height="20"
       x="-20"
       y="712.3623" />
    <rect
       style="fill:none;fill-opacity:1"
       id="rect4251"
       width="180"
       height="140"
       x="0"
       y="332.3623" />
    <rect
       style="fill:none;fill-opacity:1"
       id="rect4253"
       width="80"
       height="60"
       x="20"
       y="352.3623" />
    <rect
       style="fill:none;fill-opacity:1"
       id="rect4255"
       width="120"
       height="160"
       x="0"
       y="312.3623" />
    <rect
       style="fill:none;fill-opacity:1"
       id="rect4257"
       width="143.56807"
       height="124.03756"
       x="16.431925"
       y="348.32474" />
    <rect
       style="fill:none;fill-opacity:1;stroke:#f30000;stroke-opacity:1"
       id="rect4259"
       width="180"
       height="99.999992"
       x="0"
       y="332.3623" />
    <rect
       style="fill:none;fill-opacity:1;stroke:#f30000;stroke-opacity:1"
       id="rect4264"
       width="180"
       height="557.55865"
       x="0"
       y="434.80362" />
    <rect
       style="fill:none;fill-opacity:1;stroke:#f30000;stroke-opacity:1"
       id="rect4266"
       width="920"
       height="99.999992"
       x="180"
       y="332.3623" />
    <rect
       style="fill:none;fill-opacity:1;stroke:#f30000;stroke-opacity:1"
       id="rect4274"
       width="0"
       height="600"
       x="1100"
       y="452.3623" />
    <rect
       style="fill:none;fill-opacity:1;stroke:#f30000;stroke-opacity:1"
       id="rect4276"
       width="180"
       height="620"
       x="1100"
       y="432.3623" />
    <rect
       style="fill:none;fill-opacity:1;stroke:#f30000;stroke-opacity:1"
       id="rect4278"
       width="180"
       height="600"
       x="1100"
       y="432.3623" />
    <rect
       style="fill:none;fill-opacity:1;stroke:#f30000;stroke-opacity:1"
       id="rect4280"
       width="180"
       height="99.999992"
       x="1100"
       y="332.3623" />
    <path
       sodipodi:type="star"
       style="fill:none;fill-opacity:1;stroke:#f30000;stroke-opacity:1"
       id="path4282"
       sodipodi:sides="5"
       sodipodi:cx="100"
       sodipodi:cy="392.3623"
       sodipodi:r1="56.568542"
       sodipodi:r2="28.284271"
       sodipodi:arg1="-2.3561945"
       sodipodi:arg2="-1.727876"
       inkscape:flatsided="false"
       inkscape:rounded="0"
       inkscape:randomized="0"
       d="m 60,352.36231 35.575364,12.06395 30.106216,-22.4669 -0.48011,37.56215 30.67062,21.69006 L 120,412.3623 108.84927,448.23439 87.159211,417.56378 49.59706,418.04389 72.063955,387.93767 Z"
       inkscape:transform-center-x="-3.309449"
       inkscape:transform-center-y="2.6906172"
       transform="matrix(1.2102231,0,0,0.98392903,-32.876264,-4.9171495)" />
    <path
       sodipodi:type="spiral"
       style="fill:none;fill-rule:evenodd;stroke:#000000;stroke-width:1px;stroke-linecap:butt;stroke-linejoin:miter;stroke-opacity:1"
       id="path4306"
       sodipodi:cx="96.525826"
       sodipodi:cy="495.367"
       sodipodi:expansion="1"
       sodipodi:revolution="2.93835"
       sodipodi:radius="20"
       sodipodi:argument="-20.032993"
       sodipodi:t0="0.064100571"
       d="m 97.807837,495.367 c 0.925924,1.09578 -0.194153,2.58867 -1.282011,2.98365 -2.122179,0.77052 -4.218259,-0.96375 -4.685283,-2.98365 -0.709634,-3.06919 1.738179,-5.88705 4.685282,-6.38691 4.003015,-0.67896 7.569755,2.51322 8.088555,6.38691 0.66068,4.9331 -3.28823,9.25903 -8.088554,9.79019 -5.861729,0.64861 -10.951954,-4.06313 -11.491824,-9.79019 -0.640041,-6.78969 4.837969,-12.64712 11.491823,-13.19345 7.717305,-0.63366 14.343765,5.61275 14.895095,13.19345 0.62871,8.64471 -6.38752,16.04143 -14.895094,16.59673 -9.571985,0.62478 -17.739828,-7.16225 -18.298365,-16.59673 -0.621569,-10.49917 7.936982,-19.43877 18.298364,-20" />
    <path
       d="m 97.807837,574.99146 c 0.925924,1.09577 -0.194153,2.58866 -1.282011,2.98364 -2.122179,0.77052 -4.218259,-0.96375 -4.685283,-2.98364 -0.709634,-3.0692 1.738179,-5.88706 4.685282,-6.38692 4.003015,-0.67896 7.569755,2.51323 8.088555,6.38692 0.66068,4.93309 -3.28823,9.25902 -8.088554,9.79018 -5.861729,0.64861 -10.951954,-4.06313 -11.491824,-9.79018 -0.640041,-6.7897 4.837969,-12.64713 11.491823,-13.19346 7.717305,-0.63366 14.343765,5.61275 14.895095,13.19345 0.62871,8.64471 -6.38752,16.04143 -14.895094,16.59673 -9.571985,0.62478 -17.739828,-7.16225 -18.298365,-16.59672 -0.621569,-10.49918 7.936982,-19.43878 18.298364,-20"
       sodipodi:t0="0.064100571"
       sodipodi:argument="-20.032993"
       sodipodi:radius="20"
       sodipodi:revolution="2.93835"
       sodipodi:expansion="1"
       sodipodi:cy="574.99146"
       sodipodi:cx="96.525826"
       id="path4308"
       style="fill:none;fill-rule:evenodd;stroke:#000000;stroke-width:1px;stroke-linecap:butt;stroke-linejoin:miter;stroke-opacity:1"
       sodipodi:type="spiral" />
    <path
       sodipodi:type="spiral"
       style="fill:none;fill-rule:evenodd;stroke:#000000;stroke-width:1px;stroke-linecap:butt;stroke-linejoin:miter;stroke-opacity:1"
       id="path4310"
       sodipodi:cx="98.028183"
       sodipodi:cy="653.11346"
       sodipodi:expansion="1"
       sodipodi:revolution="2.93835"
       sodipodi:radius="20"
       sodipodi:argument="-20.032993"
       sodipodi:t0="0.064100571"
       d="m 99.310194,653.11346 c 0.925926,1.09578 -0.194153,2.58867 -1.282011,2.98365 -2.122179,0.77052 -4.218258,-0.96375 -4.685282,-2.98365 -0.709635,-3.06919 1.738178,-5.88705 4.685282,-6.38691 4.003017,-0.67896 7.569747,2.51322 8.088557,6.38691 0.66068,4.9331 -3.28823,9.25903 -8.088557,9.79019 -5.861728,0.64861 -10.951953,-4.06313 -11.491823,-9.79019 -0.640041,-6.78969 4.837968,-12.64712 11.491823,-13.19345 7.717307,-0.63366 14.343767,5.61275 14.895097,13.19345 0.62871,8.64471 -6.38752,16.04143 -14.895097,16.59673 -9.571985,0.62478 -17.739827,-7.16225 -18.298364,-16.59673 -0.62157,-10.49917 7.936982,-19.43877 18.298364,-20" />
    <path
       d="m 99.310194,735.74255 c 0.925926,1.09578 -0.194153,2.58867 -1.282011,2.98365 -2.122179,0.77052 -4.218258,-0.96375 -4.685282,-2.98365 -0.709635,-3.06919 1.738178,-5.88705 4.685282,-6.38691 4.003017,-0.67896 7.569747,2.51322 8.088557,6.38691 0.66068,4.9331 -3.28823,9.25903 -8.088557,9.79019 -5.861728,0.64861 -10.951953,-4.06313 -11.491823,-9.79019 -0.640041,-6.78969 4.837968,-12.64712 11.491823,-13.19345 7.717307,-0.63366 14.343767,5.61275 14.895097,13.19345 0.62871,8.64471 -6.38752,16.04143 -14.895097,16.59673 -9.571985,0.62478 -17.739827,-7.16225 -18.298364,-16.59673 -0.62157,-10.49917 7.936982,-19.43877 18.298364,-20"
       sodipodi:t0="0.064100571"
       sodipodi:argument="-20.032993"
       sodipodi:radius="20"
       sodipodi:revolution="2.93835"
       sodipodi:expansion="1"
       sodipodi:cy="735.74255"
       sodipodi:cx="98.028183"
       id="path4312"
       style="fill:none;fill-rule:evenodd;stroke:#000000;stroke-width:1px;stroke-linecap:butt;stroke-linejoin:miter;stroke-opacity:1"
       sodipodi:type="spiral" />
    <path
       sodipodi:type="spiral"
       style="fill:none;fill-rule:evenodd;stroke:#000000;stroke-width:1px;stroke-linecap:butt;stroke-linejoin:miter;stroke-opacity:1"
       id="path4314"
       sodipodi:cx="99.530533"
       sodipodi:cy="815.36694"
       sodipodi:expansion="1"
       sodipodi:revolution="2.93835"
       sodipodi:radius="20"
       sodipodi:argument="-20.032993"
       sodipodi:t0="0.064100571"
       d="m 100.81254,815.36694 c 0.92593,1.09578 -0.19415,2.58867 -1.282007,2.98365 -2.122179,0.77052 -4.218258,-0.96375 -4.685282,-2.98365 -0.709635,-3.06919 1.738178,-5.88705 4.685282,-6.38691 4.003017,-0.67896 7.569747,2.51322 8.088557,6.38691 0.66068,4.9331 -3.28823,9.25903 -8.088557,9.79019 -5.861729,0.64861 -10.951953,-4.06313 -11.491823,-9.79019 -0.640041,-6.78969 4.837968,-12.64712 11.491823,-13.19346 7.717307,-0.63365 14.343767,5.61276 14.895097,13.19346 0.62871,8.64471 -6.38752,16.04143 -14.895097,16.59673 -9.571985,0.62478 -17.739827,-7.16225 -18.298365,-16.59673 -0.621569,-10.49917 7.936983,-19.43877 18.298365,-20"
       inkscape:transform-center-x="1.5297607e-05"
       inkscape:transform-center-y="-60.094296" />
    <path
       inkscape:transform-center-y="-60.094296"
       inkscape:transform-center-x="1.5297607e-05"
       d="m 99.310194,893.48901 c 0.925926,1.09578 -0.194153,2.58867 -1.282011,2.98365 -2.122179,0.77052 -4.218258,-0.96375 -4.685282,-2.98365 -0.709635,-3.06919 1.738178,-5.88705 4.685282,-6.38691 4.003017,-0.67896 7.569747,2.51322 8.088557,6.38691 0.66068,4.9331 -3.28823,9.25903 -8.088557,9.79019 -5.861728,0.64861 -10.951953,-4.06313 -11.491823,-9.79019 -0.640041,-6.78969 4.837968,-12.64712 11.491823,-13.19345 7.717307,-0.63366 14.343767,5.61275 14.895097,13.19345 0.62871,8.64471 -6.38752,16.04143 -14.895097,16.59673 -9.571985,0.62478 -17.739827,-7.16225 -18.298364,-16.59673 -0.62157,-10.49917 7.936982,-19.43877 18.298364,-20"
       sodipodi:t0="0.064100571"
       sodipodi:argument="-20.032993"
       sodipodi:radius="20"
       sodipodi:revolution="2.93835"
       sodipodi:expansion="1"
       sodipodi:cy="893.48901"
       sodipodi:cx="98.028183"
       id="path4316"
       style="fill:none;fill-rule:evenodd;stroke:#000000;stroke-width:1px;stroke-linecap:butt;stroke-linejoin:miter;stroke-opacity:1"
       sodipodi:type="spiral" />
    <path
       sodipodi:type="spiral"
       style="fill:none;fill-rule:evenodd;stroke:#000000;stroke-width:1px;stroke-linecap:butt;stroke-linejoin:miter;stroke-opacity:1"
       id="path4322"
       sodipodi:cx="262.53522"
       sodipodi:cy="378.3717"
       sodipodi:expansion="1"
       sodipodi:revolution="2.93835"
       sodipodi:radius="28.284271"
       sodipodi:argument="-17.6768"
       sodipodi:t0="0"
       d="m 262.53522,378.3717 c 0.56121,1.33469 -1.52225,1.415 -2.21835,0.93278 -1.88636,-1.30678 -1.13589,-4.09968 0.35279,-5.36946 2.66289,-2.27134 6.66582,-1.03163 8.52059,1.63834 2.72195,3.9183 0.93893,9.27207 -2.92391,11.67172 -5.14856,3.19835 -11.89325,0.85205 -14.82284,-4.20948 -3.68659,-6.36941 -0.76835,-14.52171 5.49504,-17.97396 7.5858,-4.18113 17.15431,-0.68653 21.12508,6.7806 4.67941,8.79976 0.6059,19.78951 -8.06616,24.27621 -10.01224,5.18007 -22.42642,0.52605 -27.42733,-9.35173 -5.68235,-11.22375 -0.44676,-25.06454 10.63729,-30.57845 12.43462,-6.18577 27.70355,-0.36786 33.72957,11.92285 4.86687,9.92649 2.94183,22.07589 -4.40176,30.26057" />
    <path
       d="m 364.69485,378.3717 c 0.56122,1.33469 -1.52225,1.415 -2.21834,0.93278 -1.88636,-1.30678 -1.13589,-4.09968 0.35278,-5.36946 2.6629,-2.27134 6.66582,-1.03163 8.52059,1.63834 2.72195,3.9183 0.93894,9.27207 -2.92391,11.67172 -5.14856,3.19835 -11.89324,0.85205 -14.82283,-4.20948 -3.68659,-6.36941 -0.76835,-14.52171 5.49503,-17.97396 7.58581,-4.18113 17.15432,-0.68653 21.12509,6.7806 4.67941,8.79976 0.60589,19.78951 -8.06617,24.27621 -10.01223,5.18007 -22.42642,0.52605 -27.42732,-9.35173 -5.68236,-11.22375 -0.44676,-25.06454 10.63728,-30.57845 12.43463,-6.18577 27.70356,-0.36786 33.72958,11.92285 4.86687,9.92649 2.94183,22.07589 -4.40176,30.26057"
       sodipodi:t0="0"
       sodipodi:argument="-17.6768"
       sodipodi:radius="28.284271"
       sodipodi:revolution="2.93835"
       sodipodi:expansion="1"
       sodipodi:cy="378.3717"
       sodipodi:cx="364.69485"
       id="path4324"
       style="fill:none;fill-rule:evenodd;stroke:#000000;stroke-width:1px;stroke-linecap:butt;stroke-linejoin:miter;stroke-opacity:1"
       sodipodi:type="spiral" />
    <path
       sodipodi:type="spiral"
       style="fill:none;fill-rule:evenodd;stroke:#000000;stroke-width:1px;stroke-linecap:butt;stroke-linejoin:miter;stroke-opacity:1"
       id="path4326"
       sodipodi:cx="462.34744"
       sodipodi:cy="379.87405"
       sodipodi:expansion="1"
       sodipodi:revolution="2.93835"
       sodipodi:radius="28.284271"
       sodipodi:argument="-17.6768"
       sodipodi:t0="0"
       d="m 462.34744,379.87405 c 0.56122,1.33469 -1.52225,1.415 -2.21834,0.93278 -1.88637,-1.30678 -1.1359,-4.09968 0.35278,-5.36946 2.6629,-2.27134 6.66582,-1.03163 8.52059,1.63834 2.72195,3.9183 0.93894,9.27207 -2.92391,11.67172 -5.14856,3.19835 -11.89324,0.85205 -14.82283,-4.20948 -3.6866,-6.36941 -0.76836,-14.52171 5.49503,-17.97396 7.58581,-4.18113 17.15432,-0.68653 21.12509,6.7806 4.67941,8.79976 0.60589,19.78951 -8.06617,24.27621 -10.01223,5.18007 -22.42642,0.52605 -27.42733,-9.35173 -5.68235,-11.22375 -0.44675,-25.06454 10.63729,-30.57845 12.43462,-6.18577 27.70356,-0.36786 33.72958,11.92285 4.86687,9.92649 2.94183,22.07589 -4.40176,30.26057" />
    <path
       d="m 563.0047,379.87405 c 0.56122,1.33469 -1.52225,1.415 -2.21834,0.93278 -1.88637,-1.30678 -1.1359,-4.09968 0.35278,-5.36946 2.6629,-2.27134 6.66582,-1.03163 8.52059,1.63834 2.72195,3.9183 0.93893,9.27207 -2.92391,11.67172 -5.14856,3.19835 -11.89324,0.85205 -14.82284,-4.20948 -3.68659,-6.36941 -0.76835,-14.52171 5.49504,-17.97396 7.5858,-4.18113 17.15431,-0.68653 21.12508,6.7806 4.67941,8.79976 0.6059,19.78951 -8.06616,24.27621 -10.01224,5.18007 -22.42642,0.52605 -27.42733,-9.35173 -5.68235,-11.22375 -0.44675,-25.06454 10.63729,-30.57845 12.43462,-6.18577 27.70355,-0.36786 33.72958,11.92285 4.86686,9.92649 2.94182,22.07589 -4.40177,30.26057"
       sodipodi:t0="0"
       sodipodi:argument="-17.6768"
       sodipodi:radius="28.284271"
       sodipodi:revolution="2.93835"
       sodipodi:expansion="1"
       sodipodi:cy="379.87405"
       sodipodi:cx="563.0047"
       id="path4328"
       style="fill:none;fill-rule:evenodd;stroke:#000000;stroke-width:1px;stroke-linecap:butt;stroke-linejoin:miter;stroke-opacity:1"
       sodipodi:type="spiral" />
    <path
       sodipodi:type="spiral"
       style="fill:none;fill-rule:evenodd;stroke:#000000;stroke-width:1px;stroke-linecap:butt;stroke-linejoin:miter;stroke-opacity:1"
       id="path4330"
       sodipodi:cx="660.65729"
       sodipodi:cy="378.3717"
       sodipodi:expansion="1"
       sodipodi:revolution="2.93835"
       sodipodi:radius="28.284271"
       sodipodi:argument="-17.6768"
       sodipodi:t0="0"
       d="m 660.65729,378.3717 c 0.56121,1.33469 -1.52225,1.415 -2.21835,0.93278 -1.88636,-1.30678 -1.13589,-4.09968 0.35279,-5.36946 2.6629,-2.27134 6.66582,-1.03163 8.52059,1.63834 2.72195,3.9183 0.93893,9.27207 -2.92391,11.67172 -5.14856,3.19835 -11.89325,0.85205 -14.82284,-4.20948 -3.68659,-6.36941 -0.76835,-14.52171 5.49504,-17.97396 7.5858,-4.18113 17.15431,-0.68653 21.12508,6.7806 4.67941,8.79976 0.6059,19.78951 -8.06616,24.27621 -10.01224,5.18007 -22.42642,0.52605 -27.42733,-9.35173 -5.68235,-11.22375 -0.44676,-25.06454 10.63729,-30.57845 12.43462,-6.18577 27.70355,-0.36786 33.72957,11.92285 4.86687,9.92649 2.94183,22.07589 -4.40176,30.26057"
       inkscape:transform-center-x="52.582284"
       inkscape:transform-center-y="-5.9526272" />
    <path
       inkscape:transform-center-y="-5.9526272"
       inkscape:transform-center-x="52.582284"
       d="m 765.82159,378.3717 c 0.56122,1.33469 -1.52225,1.415 -2.21834,0.93278 -1.88637,-1.30678 -1.13589,-4.09968 0.35278,-5.36946 2.6629,-2.27134 6.66582,-1.03163 8.52059,1.63834 2.72195,3.9183 0.93894,9.27207 -2.92391,11.67172 -5.14856,3.19835 -11.89324,0.85205 -14.82283,-4.20948 -3.68659,-6.36941 -0.76835,-14.52171 5.49503,-17.97396 7.58581,-4.18113 17.15432,-0.68653 21.12509,6.7806 4.67941,8.79976 0.60589,19.78951 -8.06617,24.27621 -10.01223,5.18007 -22.42642,0.52605 -27.42733,-9.35173 -5.68235,-11.22375 -0.44675,-25.06454 10.63729,-30.57845 12.43463,-6.18577 27.70356,-0.36786 33.72958,11.92285 4.86687,9.92649 2.94183,22.07589 -4.40176,30.26057"
       sodipodi:t0="0"
       sodipodi:argument="-17.6768"
       sodipodi:radius="28.284271"
       sodipodi:revolution="2.93835"
       sodipodi:expansion="1"
       sodipodi:cy="378.3717"
       sodipodi:cx="765.82159"
       id="path4332"
       style="fill:none;fill-rule:evenodd;stroke:#000000;stroke-width:1px;stroke-linecap:butt;stroke-linejoin:miter;stroke-opacity:1"
       sodipodi:type="spiral" />
    <path
       sodipodi:type="spiral"
       style="fill:none;fill-rule:evenodd;stroke:#000000;stroke-width:1px;stroke-linecap:butt;stroke-linejoin:miter;stroke-opacity:1"
       id="path4334"
       sodipodi:cx="864.9765"
       sodipodi:cy="376.86935"
       sodipodi:expansion="1"
       sodipodi:revolution="2.93835"
       sodipodi:radius="28.284271"
       sodipodi:argument="-17.6768"
       sodipodi:t0="0"
       d="m 864.9765,376.86935 c 0.56122,1.33469 -1.52225,1.415 -2.21834,0.93278 -1.88637,-1.30678 -1.1359,-4.09968 0.35278,-5.36946 2.6629,-2.27134 6.66582,-1.03163 8.52059,1.63834 2.72195,3.9183 0.93893,9.27207 -2.92391,11.67172 -5.14856,3.19835 -11.89324,0.85205 -14.82283,-4.20948 -3.6866,-6.36941 -0.76836,-14.52171 5.49503,-17.97396 7.5858,-4.18113 17.15432,-0.68653 21.12508,6.7806 4.67942,8.79976 0.6059,19.78951 -8.06616,24.27621 -10.01223,5.18007 -22.42642,0.52605 -27.42733,-9.35173 -5.68235,-11.22375 -0.44675,-25.06454 10.63729,-30.57845 12.43462,-6.18577 27.70355,-0.36786 33.72958,11.92285 4.86686,9.92649 2.94183,22.07589 -4.40177,30.26057"
       inkscape:transform-center-x="52.582284"
       inkscape:transform-center-y="-5.9526272" />
    <path
       inkscape:transform-center-y="-5.9526272"
       inkscape:transform-center-x="52.582284"
       d="m 965.63373,376.86935 c 0.56122,1.33469 -1.52225,1.415 -2.21835,0.93278 -1.88636,-1.30678 -1.13589,-4.09968 0.35279,-5.36946 2.6629,-2.27134 6.66582,-1.03163 8.52059,1.63834 2.72195,3.9183 0.93893,9.27207 -2.92391,11.67172 -5.14856,3.19835 -11.89325,0.85205 -14.82284,-4.20948 -3.68659,-6.36941 -0.76835,-14.52171 5.49504,-17.97396 7.5858,-4.18113 17.15431,-0.68653 21.12508,6.7806 4.67941,8.79976 0.6059,19.78951 -8.06616,24.27621 -10.01224,5.18007 -22.42642,0.52605 -27.42733,-9.35173 -5.68235,-11.22375 -0.44676,-25.06454 10.63729,-30.57845 12.43462,-6.18577 27.70355,-0.36786 33.72957,11.92285 4.86687,9.92649 2.94183,22.07589 -4.40176,30.26057"
       sodipodi:t0="0"
       sodipodi:argument="-17.6768"
       sodipodi:radius="28.284271"
       sodipodi:revolution="2.93835"
       sodipodi:expansion="1"
       sodipodi:cy="376.86935"
       sodipodi:cx="965.63373"
       id="path4336"
       style="fill:none;fill-rule:evenodd;stroke:#000000;stroke-width:1px;stroke-linecap:butt;stroke-linejoin:miter;stroke-opacity:1"
       sodipodi:type="spiral" />
    <rect
       style="fill:none;fill-opacity:1;stroke:#f30000;stroke-width:1.11441076;stroke-opacity:1"
       id="rect4338"
       width="179.88559"
       height="99.416107"
       x="1098.5549"
       y="432.41953" />
    <rect
       y="432.41953"
       x="1098.5549"
       height="99.416107"
       width="179.88559"
       id="rect4340"
       style="fill:none;fill-opacity:1;stroke:#f30000;stroke-width:1.11441076;stroke-opacity:1" />
    <rect
       style="fill:none;fill-opacity:1;stroke:#f30000;stroke-opacity:1"
       id="rect4342"
       width="180"
       height="100"
       x="1100"
       y="532.3623" />
    <rect
       style="fill:none;fill-opacity:1;stroke:#f30000;stroke-opacity:1"
       id="rect4344"
       width="180"
       height="100"
       x="1100"
       y="632.3623" />
    <rect
       style="fill:none;fill-opacity:1;stroke:#f30000;stroke-opacity:1"
       id="rect4346"
       width="180"
       height="100"
       x="1100"
       y="732.3623" />
    <rect
       style="fill:none;fill-opacity:1;stroke:#f30000;stroke-opacity:1"
       id="rect4348"
       width="180"
       height="100"
       x="1100"
       y="832.3623" />
    <rect
       style="fill:none;fill-opacity:1;stroke:#f30000;stroke-opacity:1"
       id="rect4369"
       width="880"
       height="580"
       x="200"
       y="452.3623" />
  </g>
</svg>
